<svg width="160" height="56" viewBox="0 0 160 56" fill="none" xmlns="http://www.w3.org/2000/svg">
<path d="M29 22H11V21H29V22ZM29 27H11V28H29V27ZM29 33H11V34H29V33Z" fill="white"/>
<g clip-path="url(#clip0_3758_182)">
<path d="M83.9727 21.1232C83.6435 19.8932 82.6768 18.9266 81.4468 18.5974C79.2197 18 70.285 18 70.285 18C70.285 18 61.3504 18 59.1232 18.5974C57.8932 18.9266 56.9266 19.8932 56.5974 21.1232C56 23.3504 56 28 56 28C56 28 56 32.6496 56.5974 34.8768C56.9266 36.1068 57.8932 37.0734 59.1232 37.4026C61.3504 38 70.285 38 70.285 38C70.285 38 79.2197 38 81.4468 37.4026C82.6768 37.0734 83.6435 36.1068 83.9727 34.8768C84.5701 32.6496 84.5701 28 84.5701 28C84.5701 28 84.5677 23.3504 83.9727 21.1232Z" fill="#FF0000"/>
<path d="M67.4253 32.2854L74.8477 28.0004L67.4253 23.7153V32.2854Z" fill="white"/>
<path d="M90.6024 31.0036L87.3945 19.4185H90.1932L91.3174 24.6701C91.6043 25.9636 91.8136 27.0666 91.95 27.9791H92.0323C92.1264 27.3253 92.3381 26.2294 92.665 24.6889L93.8291 19.4185H96.6278L93.3799 31.0036V36.561H90.6001V31.0036H90.6024Z" fill="white"/>
<path d="M97.4698 36.1937C96.9054 35.8127 96.5032 35.22 96.2633 34.4157C96.0258 33.6114 95.9059 32.5437 95.9059 31.2078V29.3898C95.9059 28.0422 96.0423 26.9581 96.3151 26.142C96.5879 25.3259 97.0136 24.7285 97.5921 24.3546C98.1707 23.9806 98.9303 23.7925 99.8711 23.7925C100.798 23.7925 101.538 23.983 102.098 24.364C102.656 24.745 103.065 25.3423 103.323 26.1514C103.582 26.9628 103.712 28.0422 103.712 29.3898V31.2078C103.712 32.5437 103.585 33.6161 103.333 34.4251C103.081 35.2365 102.672 35.8292 102.108 36.2031C101.543 36.5771 100.776 36.7652 99.8099 36.7652C98.8127 36.7675 98.0343 36.5747 97.4698 36.1937ZM100.635 34.2323C100.791 33.8231 100.871 33.1575 100.871 32.2309V28.3292C100.871 27.4308 100.793 26.7723 100.635 26.3583C100.478 25.9421 100.203 25.7351 99.8075 25.7351C99.4266 25.7351 99.1561 25.9421 99.0009 26.3583C98.8433 26.7746 98.7657 27.4308 98.7657 28.3292V32.2309C98.7657 33.1575 98.8409 33.8254 98.9915 34.2323C99.142 34.6415 99.4124 34.8461 99.8075 34.8461C100.203 34.8461 100.478 34.6415 100.635 34.2323Z" fill="white"/>
<path d="M112.815 36.5634H110.609L110.365 35.03H110.304C109.704 36.1871 108.806 36.7656 107.606 36.7656C106.776 36.7656 106.162 36.4928 105.767 35.9496C105.372 35.4039 105.174 34.5526 105.174 33.3955V24.0375H107.994V33.2308C107.994 33.7906 108.055 34.188 108.178 34.4256C108.3 34.6631 108.505 34.783 108.791 34.783C109.036 34.783 109.271 34.7078 109.497 34.5573C109.723 34.4067 109.887 34.2162 109.998 33.9858V24.0352H112.815V36.5634Z" fill="white"/>
<path d="M120.475 21.6876H117.677V36.5629H114.918V21.6876H112.119V19.4204H120.475V21.6876Z" fill="white"/>
<path d="M127.277 36.5634H125.071L124.826 35.03H124.765C124.165 36.1871 123.267 36.7656 122.068 36.7656C121.237 36.7656 120.624 36.4928 120.228 35.9496C119.833 35.4039 119.636 34.5526 119.636 33.3955V24.0375H122.456V33.2308C122.456 33.7906 122.517 34.188 122.639 34.4256C122.761 34.6631 122.966 34.783 123.253 34.783C123.497 34.783 123.733 34.7078 123.958 34.5573C124.184 34.4067 124.349 34.2162 124.459 33.9858V24.0352H127.277V36.5634Z" fill="white"/>
<path d="M136.609 26.0387C136.437 25.2485 136.162 24.677 135.781 24.3219C135.4 23.9667 134.876 23.7903 134.208 23.7903C133.69 23.7903 133.206 23.9362 132.757 24.2301C132.307 24.5241 131.959 24.9075 131.715 25.3849H131.694V18.7856H128.977V36.5608H131.306L131.592 35.3755H131.654C131.872 35.7988 132.199 36.1304 132.634 36.3774C133.069 36.622 133.554 36.7443 134.085 36.7443C135.038 36.7443 135.741 36.3045 136.19 35.4272C136.64 34.5476 136.865 33.1765 136.865 31.3092V29.3266C136.865 27.9272 136.778 26.8289 136.609 26.0387ZM134.024 31.1492C134.024 32.0617 133.987 32.7767 133.911 33.2941C133.836 33.8115 133.711 34.1808 133.533 34.3971C133.356 34.6158 133.116 34.724 132.818 34.724C132.585 34.724 132.371 34.6699 132.173 34.5594C131.976 34.4512 131.816 34.2866 131.694 34.0702V26.9606C131.788 26.6196 131.952 26.3421 132.185 26.1234C132.416 25.9046 132.67 25.7965 132.94 25.7965C133.227 25.7965 133.448 25.9093 133.603 26.1328C133.761 26.3585 133.869 26.7348 133.93 27.2664C133.991 27.7979 134.022 28.5528 134.022 29.5335V31.1492H134.024Z" fill="white"/>
<path d="M140.866 31.8712C140.866 32.6755 140.889 33.2776 140.936 33.6798C140.983 34.0819 141.082 34.3736 141.233 34.5594C141.383 34.7428 141.614 34.8345 141.926 34.8345C142.347 34.8345 142.639 34.6699 142.794 34.343C142.952 34.0161 143.036 33.4705 143.051 32.7085L145.482 32.8519C145.496 32.9601 145.503 33.1106 145.503 33.3011C145.503 34.4582 145.186 35.3237 144.553 35.8952C143.921 36.4667 143.025 36.7536 141.868 36.7536C140.478 36.7536 139.504 36.3185 138.947 35.446C138.387 34.5735 138.109 33.2259 138.109 31.4008V29.2136C138.109 27.3345 138.399 25.9611 138.977 25.0956C139.556 24.2301 140.546 23.7974 141.95 23.7974C142.916 23.7974 143.66 23.9738 144.177 24.3289C144.694 24.684 145.059 25.2343 145.271 25.9846C145.482 26.7348 145.588 27.7696 145.588 29.0913V31.2362H140.866V31.8712ZM141.223 25.9681C141.08 26.1445 140.986 26.4338 140.936 26.8359C140.889 27.2381 140.866 27.8472 140.866 28.6657V29.5641H142.928V28.6657C142.928 27.8613 142.9 27.2522 142.846 26.8359C142.792 26.4197 142.693 26.128 142.55 25.9564C142.406 25.787 142.185 25.7 141.886 25.7C141.585 25.7024 141.364 25.7917 141.223 25.9681Z" fill="white"/>
</g>
<path d="M149.452 9.89062V17H148.524V9.89062H149.452ZM151.737 9.89062V10.6621H146.244V9.89062H151.737ZM152.792 9.89062H155.146C155.679 9.89062 156.13 9.97201 156.498 10.1348C156.869 10.2975 157.151 10.5384 157.343 10.8574C157.538 11.1732 157.636 11.5622 157.636 12.0244C157.636 12.3499 157.569 12.6478 157.436 12.918C157.305 13.1849 157.117 13.4128 156.869 13.6016C156.625 13.7871 156.332 13.9255 155.99 14.0166L155.727 14.1191H153.515L153.505 13.3525H155.175C155.513 13.3525 155.795 13.2939 156.02 13.1768C156.244 13.0563 156.413 12.8952 156.527 12.6934C156.641 12.4915 156.698 12.2686 156.698 12.0244C156.698 11.751 156.645 11.5117 156.537 11.3066C156.43 11.1016 156.26 10.9437 156.029 10.833C155.801 10.7191 155.507 10.6621 155.146 10.6621H153.734V17H152.792V9.89062ZM156.947 17L155.219 13.7773L156.2 13.7725L157.953 16.9414V17H156.947Z" fill="white" fill-opacity="0.6"/>
<defs>
<clipPath id="clip0_3758_182">
<rect width="90" height="20" fill="white" transform="translate(56 18)"/>
</clipPath>
</defs>
</svg>
